<?xml version="1.0" encoding="utf-8"?>
<!-- Generator: Adobe Illustrator 26.3.1, SVG Export Plug-In . SVG Version: 6.00 Build 0)  -->
<svg version="1.1"
	 id="svg822" xmlns:rdf="http://www.w3.org/1999/02/22-rdf-syntax-ns#" xmlns:inkscape="http://www.inkscape.org/namespaces/inkscape" xmlns:cc="http://creativecommons.org/ns#" xmlns:sodipodi="http://sodipodi.sourceforge.net/DTD/sodipodi-0.dtd" xmlns:svg="http://www.w3.org/2000/svg" xmlns:dc="http://purl.org/dc/elements/1.1/"
	 xmlns="http://www.w3.org/2000/svg" xmlns:xlink="http://www.w3.org/1999/xlink" x="0px" y="0px" viewBox="0 0 30 30"
	 style="enable-background:new 0 0 30 30;" xml:space="preserve">
<style type="text/css">
	.st0{fill:#FFFFFF;}
</style>
<defs>
	
		<inkscape:path-effect  apply_no_weight="true" apply_with_weight="true" effect="bspline" helper_size="0" id="path-effect1025" is_visible="true" only_selected="false" steps="2" weight="33.333333">
		</inkscape:path-effect>
	
		<inkscape:path-effect  apply_no_weight="true" apply_with_weight="true" effect="bspline" helper_size="0" id="path-effect1021" is_visible="true" only_selected="false" steps="2" weight="33.333333">
		</inkscape:path-effect>
</defs>
<sodipodi:namedview  bordercolor="#666666" borderopacity="1.0" id="base" inkscape:current-layer="layer1" inkscape:cx="19.485981" inkscape:cy="13.037383" inkscape:document-units="px" inkscape:guide-bbox="true" inkscape:pageopacity="0.0" inkscape:pageshadow="2" inkscape:window-height="713" inkscape:window-maximized="1" inkscape:window-width="1366" inkscape:window-x="0" inkscape:window-y="0" inkscape:zoom="17.833333" pagecolor="#ffffff" showgrid="true" showguides="false" units="px">
	<sodipodi:guide  id="guide1575" inkscape:locked="false" orientation="1,0" position="21.126168,22.794393"></sodipodi:guide>
	<sodipodi:guide  id="guide1635" inkscape:locked="false" orientation="1,0" position="22.682243,23.285047"></sodipodi:guide>
	<sodipodi:guide  id="guide1639" inkscape:locked="false" orientation="0,1" position="22.682243,7.6455921"></sodipodi:guide>
	<sodipodi:guide  id="guide1242" inkscape:locked="false" orientation="1,0" position="18.859863,18.859863"></sodipodi:guide>
	<inkscape:grid  id="grid1103" type="xygrid"></inkscape:grid>
</sodipodi:namedview>
<g id="layer1" transform="translate(0,-289.0625)" inkscape:groupmode="layer" inkscape:label="Layer 1">
	<path id="rect1114" inkscape:connector-curvature="0" class="st0" d="M8.3,294.5l-2.8,2.8l1.1,1.1l1.4-1.4l0.7,0.7l-1.4,1.4
		l1.4,1.4l1.4-1.4l0.7,0.7l-1.4,1.4l1.4,1.4l2.8-2.8L8.3,294.5z M21.3,295l-2.7,2.7l2.8,2.8l2.7-2.7c-0.4-0.5-0.8-1.1-1.3-1.5
		C22.3,295.8,21.8,295.3,21.3,295z M17.2,299L6.6,309.6l-0.7,3.5l3.5-0.7L20,301.9L17.2,299z M19.2,305.5l-2.8,2.8l1.4,1.4l1.4-1.4
		l0.7,0.7l-1.4,1.4l1.4,1.4l1.4-1.4l0.7,0.7l-1.4,1.4l1.1,1.1l2.8-2.8L19.2,305.5z"/>
</g>
</svg>
